HIERARCHY
ROOT SpineBase
{
  OFFSET 0.000000 0.000000 0.000000
  CHANNELS 6 Xposition Yposition Zposition Zrotation Xrotation Yrotation
  JOINT SpineMid
  {
    OFFSET 0.000000 27.103125 0.000000
    CHANNELS 3 Zrotation Xrotation Yrotation
    JOINT SpineShoulder
    {
      OFFSET -0.091805 20.164546 -0.704476
      CHANNELS 3 Zrotation Xrotation Yrotation
      JOINT Neck
      {
        OFFSET -0.049368 6.679457 -0.517360
        CHANNELS 3 Zrotation Xrotation Yrotation
        JOINT Head
        {
          OFFSET 3.394986 13.818617 1.306506
          CHANNELS 3 Zrotation Xrotation Yrotation
          End Site
          {
            OFFSET 0 0 0
          }
        }
      }
      JOINT ShoulderLeft
      {
        OFFSET -10.354614 -3.193342 -8.782460
        CHANNELS 3 Zrotation Xrotation Yrotation
        JOINT ElbowLeft
        {
          OFFSET -4.918467 -20.704309 -3.359951
          CHANNELS 3 Zrotation Xrotation Yrotation
          JOINT WristLeft
          {
            OFFSET 1.938595 -20.158110 -5.593764
            CHANNELS 3 Zrotation Xrotation Yrotation
            JOINT HandLeft
            {
              OFFSET 1.570047 -5.931107 -1.439604
              CHANNELS 3 Zrotation Xrotation Yrotation
              JOINT HandTipLeft
              {
                OFFSET 2.599491 -5.223359 -3.413373
                CHANNELS 3 Zrotation Xrotation Yrotation
                End Site
                {
                  OFFSET 0 0 0
                }
              }
              JOINT ThumbLeft
              {
                OFFSET 3.014549 -0.386575 -1.999713
                CHANNELS 3 Zrotation Xrotation Yrotation
                End Site
                {
                  OFFSET 0 0 0
                }
              }
            }
          }
        }
      }
      JOINT ShoulderRight
      {
        OFFSET 11.568773 -4.824145 5.583179
        CHANNELS 3 Zrotation Xrotation Yrotation
        JOINT ElbowRight
        {
          OFFSET 0.806414 -21.124967 1.326015
          CHANNELS 3 Zrotation Xrotation Yrotation
          JOINT WristRight
          {
            OFFSET 3.344111 -20.907190 -3.168733
            CHANNELS 3 Zrotation Xrotation Yrotation
            JOINT HandRight
            {
              OFFSET -0.275902 -9.184117 -2.414248
              CHANNELS 3 Zrotation Xrotation Yrotation
              JOINT HandTipRight
              {
                OFFSET -0.159921 -6.004737 -1.402268
                CHANNELS 3 Zrotation Xrotation Yrotation
                End Site
                {
                  OFFSET 0 0 0
                }
              }
              JOINT ThumbRight
              {
                OFFSET -0.075789 0.050496 -4.810425
                CHANNELS 3 Zrotation Xrotation Yrotation
                End Site
                {
                  OFFSET 0 0 0
                }
              }
            }
          }
        }
      }
    }
  }
  JOINT HipLeft
  {
    OFFSET -5.001519 1.352568 -6.220286
    CHANNELS 3 Zrotation Xrotation Yrotation
    JOINT KneeLeft
    {
      OFFSET -7.584515 -29.517905 -2.108935
      CHANNELS 3 Zrotation Xrotation Yrotation
      JOINT AnkleLeft
      {
        OFFSET -4.992984 -32.385056 6.194183
        CHANNELS 3 Zrotation Xrotation Yrotation
        JOINT FootLeft
        {
          OFFSET 4.309661 -8.189804 -1.809510
          CHANNELS 3 Zrotation Xrotation Yrotation
          End Site
          {
            OFFSET 0 0 0
          }
        }
      }
    }
  }
  JOINT HipRight
  {
    OFFSET 4.761890 0.339721 -0.033413
    CHANNELS 3 Zrotation Xrotation Yrotation
    JOINT KneeRight
    {
      OFFSET -3.793353 -29.214153 0.462538
      CHANNELS 3 Zrotation Xrotation Yrotation
      JOINT AnkleRight
      {
        OFFSET -6.493700 -34.893403 5.737869
        CHANNELS 3 Zrotation Xrotation Yrotation
        JOINT FootRight
        {
          OFFSET 2.845833 -3.423041 -8.930069
          CHANNELS 3 Zrotation Xrotation Yrotation
          End Site
          {
            OFFSET 0 0 0
          }
        }
      }
    }
  }
}
MOTION
Frames: 10
Frame Time: 0.033333
14.914619 71.504342 356.430622 -2.419997 -0.751591 -29.527964 0.143880 0.294270 29.436173 0.305546 0.108234 -0.068296 3.865806 7.114932 -1.820297 0.000000 0.000000 0.000000 -29.608435 66.391174 7.547784 159.253357 32.368606 19.130199 3.523042 -15.044164 27.430022 -48.174249 -24.405200 3.740529 0.000000 0.000000 0.000000 0.000000 0.000000 0.000000 4.888341 -0.387122 0.294829 -4.371732 -3.909130 -0.740039 -0.899604 -0.842062 1.355170 10.236386 10.353241 -3.903595 0.000000 0.000000 0.000000 0.000000 0.000000 0.000000 3.801083 1.890318 29.538241 -2.681293 0.385032 -0.168613 3.726545 -9.686200 -5.796897 0.000000 0.000000 0.000000 3.145829 2.923075 29.421417 -0.878772 -1.631359 0.416629 4.699759 6.012505 -9.895588 0.000000 0.000000 0.000000
15.100909 71.459340 356.557377 -2.196612 -0.805300 -29.509887 -0.018850 0.248670 29.422397 0.235272 0.124213 -0.070547 3.930424 7.354249 -1.891840 0.000000 0.000000 0.000000 -34.336437 66.805837 11.073823 161.135043 32.385322 20.557814 3.727991 -10.991679 19.859141 -48.130107 -33.730458 7.392429 0.000000 0.000000 0.000000 0.000000 0.000000 0.000000 4.919858 -0.400887 0.296957 -4.475728 -2.986723 -0.570366 -1.160324 -0.711991 1.253850 11.647680 10.301136 -4.286106 0.000000 0.000000 0.000000 0.000000 0.000000 0.000000 3.167560 1.948330 29.480177 -2.456869 0.050907 -0.132117 2.345854 -13.220947 -7.537586 0.000000 0.000000 0.000000 2.467284 2.782399 29.401447 -0.493980 -1.744536 0.427301 5.272072 6.395625 -10.665805 0.000000 0.000000 0.000000
15.324498 71.416935 356.597765 -1.895784 -0.788376 -29.472531 -0.169937 0.160426 29.392679 0.133971 0.114903 -0.072721 4.006434 7.514030 -1.953668 0.000000 0.000000 0.000000 -38.446439 68.745509 14.354467 162.141384 33.110793 24.086727 2.190366 -4.026261 7.781740 -49.021799 -44.570200 10.414061 0.000000 0.000000 0.000000 0.000000 0.000000 0.000000 4.902306 -0.415865 0.295825 -4.509865 -1.982099 -0.392498 -2.031872 -0.730480 1.300745 12.109794 8.690170 -4.138327 0.000000 0.000000 0.000000 0.000000 0.000000 0.000000 2.372447 1.839813 29.421937 -1.757090 -0.091410 -0.070935 4.722074 -5.840721 -3.927895 0.000000 0.000000 0.000000 1.661047 2.615640 29.352742 -0.164551 -1.899772 0.422472 5.188225 6.435427 -9.960688 0.000000 0.000000 0.000000
15.365851 71.446951 356.618682 -1.826492 -0.774613 -29.455250 -0.217184 0.130636 29.376814 0.098537 0.104191 -0.074909 4.174254 7.664998 -2.016615 0.000000 0.000000 0.000000 -39.040330 71.575052 15.215649 163.990163 34.053837 28.241329 -3.518730 -4.373829 8.971529 -43.357108 -32.915120 1.181060 0.000000 0.000000 0.000000 0.000000 0.000000 0.000000 5.377950 -0.722484 0.323354 -5.165961 -1.095942 -0.256707 -1.037945 -2.199390 0.937389 10.150617 12.370365 -3.896413 0.000000 0.000000 0.000000 0.000000 0.000000 0.000000 2.235528 1.858788 29.386953 -1.744599 -0.416884 -0.022646 5.747134 2.735852 -0.144684 0.000000 0.000000 0.000000 1.246777 2.610787 29.318360 0.134281 -2.142169 0.464317 3.315158 4.573427 -7.347829 0.000000 0.000000 0.000000
15.311527 71.486641 356.567144 -1.860185 -0.702183 -29.446347 -0.202439 0.107313 29.367403 0.082745 0.090275 -0.077565 4.448031 7.607442 -2.042482 0.000000 0.000000 0.000000 -38.706170 76.012496 15.597579 165.399701 36.029449 34.246339 -9.587705 -0.784276 5.743476 -36.673833 -26.565402 -7.001357 0.000000 0.000000 0.000000 0.000000 0.000000 0.000000 5.334762 -0.698369 0.323532 -4.911156 -0.877427 -0.234390 -2.844919 -1.769061 1.344692 12.499631 13.563323 -4.649300 0.000000 0.000000 0.000000 0.000000 0.000000 0.000000 1.275143 1.525637 29.417968 -0.833617 -0.662246 -0.062022 3.704173 1.632243 -0.128398 0.000000 0.000000 0.000000 1.147703 2.643718 29.294878 0.325304 -2.388359 0.522647 1.638377 2.974587 -5.041645 0.000000 0.000000 0.000000
15.169461 71.525332 356.458149 -1.983710 -0.588410 -29.403431 -0.139462 0.093867 29.322410 0.090054 0.077340 -0.080251 4.747607 7.384652 -2.028706 0.000000 0.000000 0.000000 -33.375346 77.504359 11.299060 166.127269 36.430898 36.670696 -14.570677 2.099481 4.674289 -31.189819 -21.776896 -13.643447 0.000000 0.000000 0.000000 0.000000 0.000000 0.000000 4.853297 -0.338720 0.301817 -3.924834 -1.302889 -0.308104 -3.016421 -2.052440 1.348649 11.773576 15.885083 -4.614598 0.000000 0.000000 0.000000 0.000000 0.000000 0.000000 1.439763 1.486184 29.374569 -0.649785 -0.619068 -0.032286 3.575370 4.493097 1.260604 0.000000 0.000000 0.000000 1.403473 2.547245 29.261134 0.352829 -2.386503 0.541280 0.356967 1.709827 -3.245029 0.000000 0.000000 0.000000
15.012360 71.556027 356.328566 -2.095924 -0.475739 -29.390601 -0.097616 0.090157 29.308211 0.106973 0.071074 -0.082095 5.031095 6.876023 -1.940362 0.000000 0.000000 0.000000 -26.186159 77.267059 5.195786 165.900044 36.272672 36.407260 -17.418673 2.358047 6.007831 -27.707782 -16.664443 -18.908054 0.000000 0.000000 0.000000 0.000000 0.000000 0.000000 4.075738 0.256557 0.271735 -2.572811 -2.158672 -0.409721 -4.229665 0.064699 1.675312 13.125352 11.912261 -4.509040 0.000000 0.000000 0.000000 0.000000 0.000000 0.000000 1.673555 2.354649 29.127972 -0.514121 -0.757441 0.227803 4.777899 8.931370 3.155247 0.000000 0.000000 0.000000 1.809334 2.397608 29.270606 0.380089 -2.269667 0.563865 -0.596074 0.957082 -2.080445 0.000000 0.000000 0.000000
14.879128 71.570932 356.287483 -2.199319 -0.418169 -29.374058 -0.064799 0.104585 29.290098 0.127815 0.075080 -0.083086 5.175252 6.778151 -1.937826 0.000000 0.000000 0.000000 -24.213655 77.998755 3.533692 166.547331 36.737828 37.361567 -18.068179 -0.777289 10.129463 -26.712986 -7.182356 -24.020072 0.000000 0.000000 0.000000 0.000000 0.000000 0.000000 2.953480 0.949538 0.232116 -0.740956 -3.129927 -0.492041 -3.275312 -0.677617 1.382043 11.771217 11.091772 -4.200089 0.000000 0.000000 0.000000 0.000000 0.000000 0.000000 1.781696 2.407202 29.096622 -0.529948 -0.808757 0.241767 10.125352 18.904347 5.631423 0.000000 0.000000 0.000000 2.103395 2.341242 29.267050 0.596159 -2.324078 0.643983 -1.138456 0.793314 -1.946627 0.000000 0.000000 0.000000
14.766396 71.562247 356.233668 -2.285052 -0.346268 -29.701471 -0.040226 0.111453 29.616691 0.141103 0.078957 -0.084263 5.343587 6.545315 -1.904246 0.000000 0.000000 0.000000 -22.647278 76.050339 2.267781 166.060682 36.125061 33.737528 -16.932774 -0.812243 9.650624 -27.121900 -14.340997 -21.038077 0.000000 0.000000 0.000000 0.000000 0.000000 0.000000 1.773520 1.530264 0.198658 1.017765 -3.483194 -0.438224 -3.271950 0.744349 1.240686 12.751104 8.524346 -4.126349 0.000000 0.000000 0.000000 0.000000 0.000000 0.000000 1.823950 2.541028 29.385333 -0.552829 -0.960814 0.281565 8.614617 29.941317 10.807371 0.000000 0.000000 0.000000 2.446049 2.285501 29.611077 0.715113 -2.212194 0.684755 0.742203 2.797044 -5.864395 0.000000 0.000000 0.000000
14.736713 71.507284 356.175772 -2.265484 -0.259079 -29.840692 -0.052704 0.081352 29.757449 0.150999 0.074601 -0.083611 5.351551 6.130007 -1.805685 0.000000 0.000000 0.000000 -28.381869 75.149042 7.002534 166.428802 36.196505 31.287266 -16.095510 -4.184943 13.463296 -27.235337 -20.028279 -17.775440 0.000000 0.000000 0.000000 0.000000 0.000000 0.000000 0.644524 1.936642 0.167521 2.646149 -3.642835 -0.363923 -1.187304 1.788260 0.484197 10.579359 5.376921 -3.092066 0.000000 0.000000 0.000000 0.000000 0.000000 0.000000 1.789687 2.657022 29.474846 0.203861 -1.592560 0.575049 5.506666 35.040152 13.763784 0.000000 0.000000 0.000000 2.529785 2.057339 29.773541 0.540928 -1.959240 0.606714 1.219970 3.076062 -6.190008 0.000000 0.000000 0.000000
